<?xml version="1.0" standalone="no"?>
<!DOCTYPE svg PUBLIC "-//W3C//DTD SVG 20010904//EN"
 "http://www.w3.org/TR/2001/REC-SVG-20010904/DTD/svg10.dtd">
<svg version="1.0" xmlns="http://www.w3.org/2000/svg"
 width="500.000000pt" height="500.000000pt" viewBox="0 0 500.000000 500.000000"
 preserveAspectRatio="xMidYMid meet">
<metadata>
Created by potrace 1.11, written by Peter Selinger 2001-2013
</metadata>
<g transform="translate(0.000000,500.000000) scale(0.100000,-0.100000)"
fill="#000000" stroke="none">
<path d="M0 2119 l0 -2119 2500 0 2500 0 -2 2048 -3 2047 -48 3 c-33 2 -47 0
-42 -7 3 -6 1 -11 -4 -11 -6 0 -11 4 -11 9 0 6 -51 9 -122 8 -72 -1 -124 2
-125 8 -4 22 -46 25 -79 4 -19 -11 -34 -16 -34 -10 0 6 8 11 18 12 11 1 8 4
-8 8 -32 10 -53 2 -46 -15 3 -8 1 -14 -4 -14 -6 0 -10 7 -10 15 0 16 -1 16
-137 17 -58 0 -81 4 -76 12 4 7 1 7 -8 -1 -16 -13 -89 -13 -89 0 0 4 -5 7 -11
7 -5 0 -8 -3 -6 -7 3 -5 -24 -8 -59 -8 -35 0 -64 3 -64 6 0 3 -12 4 -27 2 -59
-9 -69 -9 -94 -2 -14 4 -33 2 -42 -3 -11 -6 -17 -5 -17 2 0 5 -5 10 -11 10 -5
0 -7 -5 -3 -12 4 -7 3 -8 -5 -4 -20 13 -143 21 -186 12 -11 -2 -26 1 -32 7 -9
6 -13 6 -13 -1 0 -7 -24 -10 -65 -9 -47 1 -64 5 -60 15 6 16 -3 15 -22 -3 -17
-17 -40 -14 -36 4 2 6 -2 11 -7 11 -6 0 -10 -6 -10 -13 0 -8 -15 -13 -45 -13
-24 -1 -42 3 -39 8 3 4 9 6 13 4 4 -3 12 -1 19 3 6 4 -6 7 -28 8 -22 0 -40 -3
-40 -9 0 -5 -6 -5 -16 0 -9 5 -32 6 -50 2 -19 -4 -34 -4 -34 1 0 5 -26 7 -57
5 -32 -1 -71 1 -87 5 -16 5 -34 5 -40 0 -11 -9 -27 -8 -61 4 -16 6 -17 5 -5
-4 17 -12 4 -13 -25 -2 -11 5 -30 4 -43 0 -15 -6 -21 -5 -17 1 3 6 1 10 -4 10
-6 0 -11 -5 -11 -11 0 -8 -5 -7 -16 2 -9 7 -18 9 -22 3 -9 -11 -52 -14 -52 -2
0 4 -7 8 -16 8 -8 0 -12 -5 -9 -11 4 -6 -2 -5 -13 2 -17 11 -24 10 -38 -2 -10
-8 -15 -9 -11 -3 4 7 -12 10 -48 10 -29 0 -51 -4 -48 -9 3 -5 -4 -4 -16 3 -12
6 -46 11 -74 10 -75 -2 -79 -2 -71 13 6 9 4 9 -7 1 -8 -6 -24 -10 -37 -8 -13
2 -21 0 -17 -5 3 -6 -7 -6 -27 0 -23 6 -34 5 -40 -4 -6 -9 -8 -8 -8 3 0 13 -1
13 -10 0 -8 -12 -10 -12 -16 3 -3 9 -10 17 -16 17 -5 0 -6 -5 -3 -10 6 -9 -10
-8 -85 5 -8 1 -22 -4 -32 -12 -12 -11 -18 -11 -24 -2 -4 8 -3 10 4 5 7 -4 12
-2 12 3 0 18 -38 12 -50 -6 -8 -13 -10 -14 -7 -2 4 13 -11 15 -122 14 -70 -1
-133 -5 -141 -10 -8 -5 -11 -4 -7 2 5 7 -16 10 -62 9 -38 0 -67 -4 -65 -8 7
-10 -60 16 -68 27 -5 6 -8 6 -8 -1 0 -7 -47 -11 -145 -11 -80 1 -145 4 -145 9
0 4 -5 8 -11 8 -5 0 -7 -4 -4 -10 3 -5 0 -10 -9 -10 -8 0 -16 5 -18 12 -2 6
-12 12 -22 14 -13 2 -16 -2 -12 -14 5 -13 2 -12 -9 2 -13 17 -15 18 -15 3 0
-9 -4 -17 -10 -17 -5 0 -7 7 -4 15 4 8 2 15 -4 15 -5 0 -12 -6 -15 -14 -6 -15
-23 -16 -46 -2 -7 5 -63 9 -125 9 -61 0 -116 3 -121 8 -6 4 -17 4 -25 -1 -8
-6 -23 -10 -34 -10 -16 0 -17 2 -5 18 13 15 12 16 -3 4 -9 -8 -22 -11 -28 -7
-5 3 -10 3 -10 -2 0 -12 -88 -14 -96 -2 -4 6 -11 6 -20 -2 -8 -6 -14 -7 -14
-2 0 5 -9 9 -20 9 -11 0 -20 -3 -20 -6 0 -8 -168 -5 -177 3 -4 5 0 5 10 1 10
-4 17 -1 17 6 0 12 -15 11 -54 -6 -14 -5 -17 -4 -12 4 4 7 2 12 -3 12 -6 0
-11 -4 -11 -10 0 -10 -62 -7 -92 5 -10 4 -18 3 -18 -2 0 -12 -38 -14 -45 -2
-9 14 -55 11 -55 -3 0 -8 -3 -9 -8 -3 -11 15 -32 17 -32 3 0 -10 -3 -9 -9 1
-6 9 -11 10 -15 2 -4 -6 -12 -11 -17 -11 -6 0 -8 4 -5 9 3 5 -6 9 -19 9 l-25
0 0 -2119z m1043 2074 c-7 -2 -19 -2 -25 0 -7 3 -2 5 12 5 14 0 19 -2 13 -5z
m3577 -89 c0 -2 -9 -4 -21 -4 -11 0 -18 4 -14 10 5 8 35 3 35 -6z m-2795 -706
c15 -35 214 -479 443 -988 228 -509 417 -931 419 -938 4 -10 -27 -12 -153 -10
l-158 3 -97 225 -98 225 -402 0 -402 0 -105 -227 -104 -228 -155 0 c-85 0
-153 4 -151 9 20 52 925 1991 929 1991 4 0 19 -28 34 -62z m1798 -34 c127 -31
248 -117 328 -235 21 -32 39 -60 39 -63 0 -6 -217 -136 -227 -136 -4 0 -21 20
-36 45 -62 97 -154 141 -276 133 -77 -6 -134 -32 -185 -84 -44 -45 -60 -91
-54 -159 8 -98 67 -150 262 -230 331 -138 444 -219 516 -369 78 -166 64 -393
-35 -561 -67 -115 -214 -223 -355 -261 -79 -21 -243 -24 -320 -5 -161 39 -301
148 -373 291 -38 76 -84 236 -72 248 7 8 285 71 285 65 0 -2 7 -38 16 -81 27
-129 67 -187 161 -234 56 -27 76 -32 142 -32 128 0 228 61 282 170 33 68 35
209 2 270 -48 89 -121 140 -323 224 -186 77 -254 116 -335 192 -122 114 -171
252 -145 405 51 303 371 488 703 407z"/>
<path d="M1643 2507 l-142 -312 276 -3 c152 -1 277 -1 279 1 3 3 -204 486
-249 579 l-22 47 -142 -312z"/>
</g>
</svg>
